# xmcd CD database file
#
# Track frame offsets:
#	150
#	23301
#	39382
#	56833
#	73025
#	93613
#	114972
#	133340
#	151183
#	170096
#	190381
#	209543
#	233876
#
# Disc length: 3337 seconds
#
# Revision: 0
# Processed by: cddbd v1.5.2PL0 Copyright (c) Steve Scherf et al.
# Submitted via: CDex 1.50
#
DISCID=b50d070d
DTITLE=Erick - Recopilacion
DYEAR=1900
DGENRE=Salsa
TTITLE0=Fantasia Herida
TTITLE1=El Soltero
TTITLE2=Dime Como Llego A Ti
TTITLE3=El Ultimo En Tu Vida
TTITLE4=Un Tiempo Para Nosotros
TTITLE5=Echame La Culpa A Mi
TTITLE6=El Que Mas Te A Querido
TTITLE7=Amnesia
TTITLE8=Agua ardiente de caña
TTITLE9=Alta marea
TTITLE10=Las mujeres
TTITLE11=Quiero olvidarte y no puedo
TTITLE12=Soñando
EXTD=
EXTT0=
EXTT1=
EXTT2=
EXTT3=
EXTT4=
EXTT5=
EXTT6=
EXTT7=
EXTT8=
EXTT9=
EXTT10=
EXTT11=
EXTT12=
PLAYORDER=
